<svg xmlns="http://www.w3.org/2000/svg" width="390" height="844" viewBox="0 0 390 844" role="img" aria-label="Crear negocio">
<style>
  .bg{fill:#f7f4ee}.phone{fill:#fff;stroke:#0f172a;stroke-width:10}.top{fill:#06325c}.teal{fill:#00978f}.mint{fill:#e5faf6}.ink{fill:#0f172a}.muted{fill:#64748b}.card{fill:#fff;stroke:#dfe7e4;stroke-width:1.5}.soft{fill:#f3fbf9;stroke:#bfe8e0;stroke-width:1.5}.warn{fill:#fff7ed;stroke:#fed7aa;stroke-width:1.5}.btn{fill:#00978f}.line{stroke:#d5dedb;stroke-width:1.4}.chip{fill:#e6f7f3;stroke:#9bded4;stroke-width:1.2}.label{font:700 12px Arial,sans-serif;fill:#00978f}.h1{font:800 26px Arial,sans-serif;fill:#0f172a}.h2{font:800 18px Arial,sans-serif;fill:#0f172a}.body{font:500 13px Arial,sans-serif;fill:#334155}.small{font:600 10px Arial,sans-serif;fill:#64748b}.buttonText{font:800 12px Arial,sans-serif;fill:#fff}.nav{font:700 10px Arial,sans-serif;fill:#64748b}.navOn{font:800 10px Arial,sans-serif;fill:#00978f}
</style>
<rect class="bg" width="390" height="844"/>
<rect x="25" y="18" width="340" height="808" rx="34" class="phone"/>
<rect x="47" y="48" width="296" height="78" rx="24" class="top"/>
<text x="66" y="78" style="font:800 13px Arial,sans-serif;fill:#99f6e4">PET ECOSYSTEM</text>
<text x="66" y="104" style="font:800 22px Arial,sans-serif;fill:#fff">Crear negocio</text>
<text x="66" y="141" class="body">Registra la organizacion que atendera reservas.</text>
<rect x="47" y="164" width="296" height="510" rx="20" class="card"/>
<text x="66" y="198" class="label">NEGOCIO</text><text x="66" y="226" class="h1">Datos basicos</text>
<text x="66" y="262" class="small">Nombre comercial</text><rect x="66" y="274" width="238" height="44" rx="13" fill="#f8fafc" stroke="#dbe7e3"/><text x="82" y="301" class="body">Happy Pets Grooming</text>
<text x="66" y="344" class="small">Telefono</text><rect x="66" y="356" width="238" height="44" rx="13" fill="#f8fafc" stroke="#dbe7e3"/><text x="82" y="383" class="body">+507 6000-0000</text>
<text x="66" y="426" class="small">Ciudad y pais</text><rect x="66" y="438" width="238" height="44" rx="13" fill="#f8fafc" stroke="#dbe7e3"/><text x="82" y="465" class="body">Panama, PA</text>
<rect x="66" y="510" width="238" height="62" rx="15" class="mint"/><text x="84" y="536" class="body">Usa un nombre claro: sera visible en el marketplace cuando el admin apruebe.</text>
<rect x="66" y="608" width="238" height="42" rx="21" class="btn"/><text x="139" y="635" class="buttonText">Guardar negocio</text>
<rect x="47" y="755" width="296" height="48" rx="20" fill="#f8fafc" stroke="#e2e8f0"/>
<text x="70" y="784" class="nav">Inicio</text><text x="128" y="784" class="navOn">Negocio</text><text x="196" y="784" class="nav">Servicios</text><text x="280" y="784" class="nav">Horarios</text>
</svg>
