<svg xmlns="http://www.w3.org/2000/svg" width="390" height="844" viewBox="0 0 390 844" role="img" aria-label="Perfil publico">
<style>
  .bg{fill:#f7f4ee}.phone{fill:#fff;stroke:#0f172a;stroke-width:10}.top{fill:#06325c}.teal{fill:#00978f}.mint{fill:#e5faf6}.ink{fill:#0f172a}.muted{fill:#64748b}.card{fill:#fff;stroke:#dfe7e4;stroke-width:1.5}.soft{fill:#f3fbf9;stroke:#bfe8e0;stroke-width:1.5}.warn{fill:#fff7ed;stroke:#fed7aa;stroke-width:1.5}.btn{fill:#00978f}.line{stroke:#d5dedb;stroke-width:1.4}.chip{fill:#e6f7f3;stroke:#9bded4;stroke-width:1.2}.label{font:700 12px Arial,sans-serif;fill:#00978f}.h1{font:800 26px Arial,sans-serif;fill:#0f172a}.h2{font:800 18px Arial,sans-serif;fill:#0f172a}.body{font:500 13px Arial,sans-serif;fill:#334155}.small{font:600 10px Arial,sans-serif;fill:#64748b}.buttonText{font:800 12px Arial,sans-serif;fill:#fff}.nav{font:700 10px Arial,sans-serif;fill:#64748b}.navOn{font:800 10px Arial,sans-serif;fill:#00978f}
</style>
<rect class="bg" width="390" height="844"/>
<rect x="25" y="18" width="340" height="808" rx="34" class="phone"/>
<rect x="47" y="48" width="296" height="78" rx="24" class="top"/>
<text x="66" y="78" style="font:800 13px Arial,sans-serif;fill:#99f6e4">PET ECOSYSTEM</text>
<text x="66" y="104" style="font:800 22px Arial,sans-serif;fill:#fff">Perfil publico</text>
<text x="66" y="141" class="body">Describe tu negocio para los duenos de mascotas.</text>
<rect x="47" y="164" width="296" height="118" rx="20" class="soft"/><circle cx="88" cy="223" r="31" class="teal"/><text x="75" y="229" style="font:900 16px Arial;fill:white">HP</text><text x="134" y="211" class="h2">Happy Pets</text><text x="134" y="235" class="small">Visible para propietarios</text><rect x="134" y="248" width="92" height="22" rx="11" class="chip"/><text x="153" y="263" class="small">Publico</text>
<rect x="47" y="304" width="296" height="338" rx="20" class="card"/>
<text x="66" y="338" class="label">PUBLICACION</text><text x="66" y="366" class="h2">Presentacion</text>
<rect x="66" y="386" width="238" height="86" rx="14" fill="#f8fafc" stroke="#dbe7e3"/><text x="82" y="412" class="body">Grooming, paseos y cuidado diario con atencion amable.</text>
<text x="66" y="505" class="small">Ubicacion publica</text><rect x="66" y="518" width="238" height="48" rx="14" fill="#f8fafc" stroke="#dbe7e3"/><text x="82" y="548" class="body">San Francisco, Panama</text>
<rect x="66" y="589" width="238" height="36" rx="18" class="btn"/><text x="132" y="612" class="buttonText">Guardar perfil</text>
<rect x="47" y="755" width="296" height="48" rx="20" fill="#f8fafc" stroke="#e2e8f0"/>
<text x="70" y="784" class="nav">Inicio</text><text x="128" y="784" class="navOn">Negocio</text><text x="196" y="784" class="nav">Servicios</text><text x="280" y="784" class="nav">Horarios</text>
</svg>
