<svg xmlns="http://www.w3.org/2000/svg" width="390" height="844" viewBox="0 0 390 844" role="img" aria-label="Horarios">
<style>
  .bg{fill:#f7f4ee}.phone{fill:#fff;stroke:#0f172a;stroke-width:10}.top{fill:#06325c}.teal{fill:#00978f}.mint{fill:#e5faf6}.ink{fill:#0f172a}.muted{fill:#64748b}.card{fill:#fff;stroke:#dfe7e4;stroke-width:1.5}.soft{fill:#f3fbf9;stroke:#bfe8e0;stroke-width:1.5}.warn{fill:#fff7ed;stroke:#fed7aa;stroke-width:1.5}.btn{fill:#00978f}.line{stroke:#d5dedb;stroke-width:1.4}.chip{fill:#e6f7f3;stroke:#9bded4;stroke-width:1.2}.label{font:700 12px Arial,sans-serif;fill:#00978f}.h1{font:800 26px Arial,sans-serif;fill:#0f172a}.h2{font:800 18px Arial,sans-serif;fill:#0f172a}.body{font:500 13px Arial,sans-serif;fill:#334155}.small{font:600 10px Arial,sans-serif;fill:#64748b}.buttonText{font:800 12px Arial,sans-serif;fill:#fff}.nav{font:700 10px Arial,sans-serif;fill:#64748b}.navOn{font:800 10px Arial,sans-serif;fill:#00978f}
</style>
<rect class="bg" width="390" height="844"/>
<rect x="25" y="18" width="340" height="808" rx="34" class="phone"/>
<rect x="47" y="48" width="296" height="78" rx="24" class="top"/>
<text x="66" y="78" style="font:800 13px Arial,sans-serif;fill:#99f6e4">PET ECOSYSTEM</text>
<text x="66" y="104" style="font:800 22px Arial,sans-serif;fill:#fff">Horarios</text>
<text x="66" y="141" class="body">Configura franjas y capacidad por servicio.</text>
<rect x="47" y="164" width="296" height="82" rx="18" class="soft"/><text x="66" y="196" class="label">CUPOS DEFINIDOS</text><text x="66" y="222" class="h2">Horarios y capacidad</text><circle cx="314" cy="205" r="22" class="btn"/><text x="306" y="213" style="font:900 24px Arial;fill:white">+</text>
<rect x="47" y="270" width="296" height="126" rx="18" class="card"/><text x="66" y="302" class="h2">Grooming completo</text><text x="66" y="328" class="body">Lunes · 09:00 - 13:00</text><text x="66" y="354" class="body">Capacidad: 4 cupos</text><rect x="236" y="322" width="72" height="26" rx="13" class="chip"/><text x="255" y="340" class="small">Activo</text>
<rect x="47" y="416" width="296" height="126" rx="18" class="card"/><text x="66" y="448" class="h2">Grooming completo</text><text x="66" y="474" class="body">Sabado · 10:00 - 14:00</text><text x="66" y="500" class="body">Capacidad: 3 cupos</text><rect x="236" y="468" width="72" height="26" rx="13" class="chip"/><text x="255" y="486" class="small">Activo</text>
<rect x="66" y="586" width="238" height="40" rx="20" class="btn"/><text x="132" y="611" class="buttonText">Crear horario</text>
<rect x="47" y="755" width="296" height="48" rx="20" fill="#f8fafc" stroke="#e2e8f0"/>
<text x="70" y="784" class="nav">Inicio</text><text x="128" y="784" class="navOn">Negocio</text><text x="196" y="784" class="nav">Servicios</text><text x="280" y="784" class="nav">Horarios</text>
</svg>
